<svg width="192" height="192" viewBox="0 0 192 192" fill="none"
   xmlns="http://www.w3.org/2000/svg">
   <rect width="192" height="192" rx="32" fill="url(#paint0_linear_12_599)"/>
   <g filter="url(#filter0_dd_12_599)">
      <path fill-rule="evenodd" clip-rule="evenodd" d="M96 160C131.346 160 160 131.346 160 96C160 60.6538 131.346 32 96 32C60.6538 32 32 60.6538 32 96C32 110.145 36.5887 123.218 44.3587 133.812C45.8782 135.884 46.5481 138.521 45.7333 140.957C44.5368 144.535 42.7364 148.579 40 152C35.6006 157.499 47.9757 153.946 56.7832 150.807C59.2288 149.935 61.9305 150.25 64.1822 151.543C73.5545 156.923 84.418 160 96 160Z" fill="white"/>
   </g>
   <defs>
      <filter id="filter0_dd_12_599" x="16" y="32" width="160" height="160" filterUnits="userSpaceOnUse" color-interpolation-filters="sRGB">
         <feFlood flood-opacity="0" result="BackgroundImageFix"/>
         <feColorMatrix in="SourceAlpha" type="matrix" values="0 0 0 0 0 0 0 0 0 0 0 0 0 0 0 0 0 0 127 0" result="hardAlpha"/>
         <feOffset dy="16"/>
         <feGaussianBlur stdDeviation="8"/>
         <feComposite in2="hardAlpha" operator="out"/>
         <feColorMatrix type="matrix" values="0 0 0 0 0 0 0 0 0 0 0 0 0 0 0 0 0 0 0.24 0"/>
         <feBlend mode="normal" in2="BackgroundImageFix" result="effect1_dropShadow_12_599"/>
         <feColorMatrix in="SourceAlpha" type="matrix" values="0 0 0 0 0 0 0 0 0 0 0 0 0 0 0 0 0 0 127 0" result="hardAlpha"/>
         <feOffset dy="4"/>
         <feGaussianBlur stdDeviation="2"/>
         <feComposite in2="hardAlpha" operator="out"/>
         <feColorMatrix type="matrix" values="0 0 0 0 0 0 0 0 0 0 0 0 0 0 0 0 0 0 0.24 0"/>
         <feBlend mode="normal" in2="effect1_dropShadow_12_599" result="effect2_dropShadow_12_599"/>
         <feBlend mode="normal" in="SourceGraphic" in2="effect2_dropShadow_12_599" result="shape"/>
      </filter>
      <linearGradient id="paint0_linear_12_599" x1="96" y1="2.86102e-06" x2="96" y2="192" gradientUnits="userSpaceOnUse">
         <stop stop-color="#6889FF"/>
         <stop offset="1" stop-color="#004EE8"/>
      </linearGradient>
   </defs>
</svg>
